<svg width="1440" height="801" viewBox="0 0 1440 801" fill="none" xmlns="http://www.w3.org/2000/svg">
<mask id="mask0" mask-type="alpha" maskUnits="userSpaceOnUse" x="0" y="0" width="1440" height="801">
<rect width="1440" height="801" fill="#00586C"/>
</mask>
<g mask="url(#mask0)">
<path d="M183.361 1068.15C144.698 1095.47 102.397 1103.75 63.8892 1095.25C29.593 1087.68 -1.83847 1066.72 -25.0847 1034C-73.8463 965.366 -60.6706 879.132 12.4701 827.521C51.4473 800 87.0893 775.337 135.36 741.241C158.17 770.629 197.535 828.742 220.293 860.814C243.473 893.428 252.684 929.699 248.546 964.371L383.496 994.159C394.778 929.163 381.76 861.949 342.161 806.12C297.114 742.709 271.997 714.789 238.717 667.904L341.332 595.481C411.06 546.262 440.344 457.292 413.503 376.333L337.474 430.002L287.716 465.118L237.958 500.234L-47.6747 701.827L-83.9734 727.423L-92.9337 733.713L-95.5074 735.571C-95.5074 735.571 -96.1366 735.971 -97.0134 736.676C-103.495 741.536 -131.266 763.622 -156.047 800.747C-198.129 863.976 -230.813 970.796 -131.825 1110.01C-87.1135 1172.89 -25.5345 1212.46 40.5651 1227.05C114.659 1243.4 194.482 1228.49 262.932 1180.16C312.147 1145.46 347.259 1099.93 367.375 1050.45L229.073 1019.92C218.18 1037.82 203.016 1054.25 183.361 1068.15Z" stroke="#01667D" stroke-width="50"/>
<path d="M-47.676 701.825L237.852 500.299L253.027 489.54C296.379 422.188 293.992 334.585 245.801 269.491L-71.8975 718.855L-47.676 701.825Z" stroke="#01667D" stroke-width="50"/>
<path d="M118.163 449.977C118.621 390.32 91.5988 332.236 42.1757 294.368L-118.578 755.55C-108.336 745.499 -100.15 739.039 -97.0139 736.676C-96.1371 735.971 -95.5079 735.57 -95.5079 735.57L-92.9343 733.712L-83.9739 727.423L-71.8967 718.856L118.163 449.977Z" stroke="#01667D" stroke-width="50"/>
<path d="M337.475 430.002L287.717 465.118L237.959 500.234L-47.6741 701.827L-83.9728 727.423L-92.9332 733.713L-95.5068 735.571C-95.5068 735.571 -96.136 735.971 -97.0128 736.676C-103.494 741.536 -131.266 763.622 -156.047 800.747C-198.129 863.976 -230.812 970.796 -131.824 1110.01" stroke="#34a7ce" stroke-width="50"/>
<circle cx="337.401" cy="430.401" r="25.0539" transform="rotate(-17.5524 337.401 430.401)" fill="white"/>
<path d="M1071.18 -149.703C1092.41 -192.021 1125.82 -219.257 1163.78 -229.909C1197.6 -239.396 1235.2 -235.727 1271.12 -217.826C1346.48 -180.275 1375.5 -98.0086 1335.32 -18.0175C1313.91 24.6252 1294.1 63.1752 1267.59 115.997C1233.63 100.829 1171.52 68.128 1136.33 50.5676C1100.52 32.7275 1075.3 5.07925 1062.61 -27.4505L929.544 9.8802C950.227 72.5218 993.387 125.668 1054.62 156.243C1124.24 190.939 1159.55 203.726 1211 229.392L1154.63 341.63C1116.33 417.903 1132.44 510.173 1194.27 568.926L1236.03 485.758L1263.36 431.336L1290.7 376.914L1447.6 64.4933L1467.55 24.8106L1472.49 15.0405L1473.89 12.1887C1473.89 12.1887 1474.25 11.5391 1474.69 10.504C1478.12 3.1632 1492.2 -29.4053 1496.56 -73.8274C1503.88 -149.427 1482.36 -259.043 1329.44 -335.168C1260.37 -369.56 1187.41 -375.431 1122.24 -357.146C1049.18 -336.65 985.806 -285.878 948.214 -210.989C921.161 -157.192 911.656 -100.481 917.233 -47.3633L1053.6 -85.6213C1054.77 -106.546 1060.4 -128.177 1071.18 -149.703Z" stroke="#01667D" stroke-width="50"/>
<path d="M1447.6 64.4943L1290.76 376.806L1282.45 393.447C1275.95 473.282 1319.35 549.42 1392.53 584.118L1460.94 38.0594L1447.6 64.4943Z" stroke="#01667D" stroke-width="50"/>
<path d="M1420.04 364.778C1447.75 417.609 1498.96 456.102 1560.4 466.207L1484.82 -16.3053C1480.52 -2.61437 1476.34 6.94179 1474.69 10.5039C1474.25 11.539 1473.89 12.1886 1473.89 12.1886L1472.49 15.0404L1467.55 24.8105L1460.94 38.0583L1420.04 364.778Z" stroke="#01667D" stroke-width="32"/>
</g>
</svg>
