<svg width="118" height="47" viewBox="0 0 118 47" fill="none" xmlns="http://www.w3.org/2000/svg">
<path d="M44.0651 39.3158C48.4799 39.3158 51.7577 36.0192 51.7577 31.7511C51.7577 27.4788 48.5965 24.1864 44.744 24.1864C42.6449 24.1864 41.637 24.3026 40.0877 24.3026V20.4912L36.3809 19.3577V32.6853C36.3726 32.6811 36.3684 39.3158 44.0651 39.3158ZM44.0485 35.7909C41.7786 35.7909 40.0793 34.155 40.0793 31.7511C40.0793 30.4681 40.0877 29.3015 40.0877 27.7113C41.0914 27.6698 42.9864 27.7113 44.0443 27.7113C46.3433 27.7113 48.0426 29.3471 48.0426 31.7511C48.0468 34.1592 46.3517 35.7909 44.0485 35.7909Z" fill="white"/>
<path d="M62.2781 35.9636C63.715 35.9636 64.8645 35.3616 65.4976 34.5312L68.488 36.2501C67.1386 38.1973 64.9811 39.3183 62.2198 39.3183C57.3885 39.3183 54.3398 36.0217 54.3398 31.7536C54.3398 27.4855 57.4177 24.1889 61.9324 24.1889C66.189 24.1889 69.2043 27.5436 69.2043 31.7536C69.2043 32.2975 69.146 32.7833 69.0586 33.2732H58.2257C58.7421 35.1581 60.3248 35.9636 62.2781 35.9636ZM65.4976 30.4001C65.0394 28.3366 63.4859 27.5062 61.9324 27.5062C59.9499 27.5062 58.5964 28.565 58.1674 30.4001H65.4976Z" fill="white"/>
<path d="M79.1961 28.1373V24.5833H75.9475V19.3519L72.2407 20.4688V24.5791V28.1331V34.0952C72.2407 37.9648 73.9941 39.4844 79.2003 38.9114V35.5567C77.072 35.673 75.9516 35.6439 75.9516 34.0952V28.1373H79.1961Z" fill="white"/>
<path d="M89.1878 28.1373V24.5833H85.9392V19.3519L82.2324 20.4688V24.5791V28.1331V34.0952C82.2324 37.9648 83.9858 39.4844 89.192 38.9114V35.5567C87.0637 35.673 85.9433 35.6439 85.9433 34.0952V28.1373H89.1878Z" fill="white"/>
<path d="M100.882 24.5833V28.0792C98.954 27.8508 96.5134 29.661 96.5134 32.6711V38.9114H92.8066V24.5833H96.5134V26.6219C97.4255 25.2185 99.0706 24.5833 100.882 24.5833Z" fill="white"/>
<path d="M111.07 35.9636C112.507 35.9636 113.656 35.3616 114.289 34.5312L117.28 36.2501C115.926 38.1973 113.773 39.3183 111.012 39.3183C106.18 39.3183 103.136 36.0217 103.136 31.7536C103.136 27.4855 106.214 24.1889 110.724 24.1889C114.981 24.1889 118 27.5436 118 31.7536C118 32.2975 117.942 32.7833 117.854 33.2732H107.013C107.534 35.1581 109.117 35.9636 111.07 35.9636ZM114.289 30.4001C113.827 28.3366 112.278 27.5062 110.724 27.5062C108.742 27.5062 107.388 28.565 106.959 30.4001H114.289Z" fill="white"/>
<path d="M19.213 37.5371C17.7053 39.1937 15.8352 40.0075 13.9694 40.0075C12.3076 40.0075 10.6416 39.3598 9.23389 38.0852C6.28099 35.4114 6.01027 31.2927 8.86322 28.1622C10.3834 26.4931 11.7786 24.9902 13.6612 22.9225C15.0148 24.0477 17.4262 26.3312 18.8048 27.5809C20.2084 28.8514 21.0039 30.4333 21.1663 32.0774H27.7052C27.5636 28.9594 26.2766 25.9866 23.8776 23.811C21.1496 21.3407 19.7044 20.3068 17.6886 18.48L21.6911 14.0873C24.4108 11.1021 24.8564 6.69283 22.7906 3.22601L19.8252 6.48109L17.8844 8.611L15.9435 10.7409L4.80245 22.9682L3.38639 24.521L3.03654 24.903L2.93658 25.0151C2.93658 25.0151 2.91159 25.04 2.87827 25.0815C2.62838 25.3721 1.57049 26.6758 0.804154 28.6438C-0.495292 31.9944 -0.915947 37.2631 5.07733 42.6855C7.78451 45.1351 11.0331 46.335 14.2359 46.335C17.8261 46.335 21.3621 44.832 24.0317 41.9008C25.9518 39.7958 27.1096 37.3337 27.5344 34.8426H20.8331C20.5124 35.7809 19.9793 36.6943 19.213 37.5371Z" fill="white"/>
<path d="M4.80236 22.9682L15.9393 10.7451L16.5307 10.0932C17.8468 6.53921 16.8431 2.51604 13.9526 0L3.85693 24.002L4.80236 22.9682Z" fill="white" fill-opacity="0.6"/>
<path d="M9.89637 9.64066C9.30912 6.87966 7.46824 4.47158 4.79855 3.22601L2.07471 26.1734C2.44538 25.6046 2.75775 25.2227 2.87853 25.0815C2.91185 25.04 2.93684 25.0151 2.93684 25.0151L3.0368 24.903L3.38665 24.521L3.85728 24.002L9.89637 9.64066Z" fill="white" fill-opacity="0.3"/>
</svg>
