<svg width="1440" height="754" viewBox="0 0 1440 754" fill="none" xmlns="http://www.w3.org/2000/svg">
<g opacity="0.2">
<mask id="mask0" mask-type="alpha" maskUnits="userSpaceOnUse" x="0" y="0" width="1440" height="754">
<path d="M0 0.500316L1440 0V754H0V0.500316Z" fill="#00748F"/>
</mask>
<g mask="url(#mask0)">
<g opacity="0.9">
<path d="M677.75 993.126C632.041 951.525 609.587 899.927 609.587 848.444C609.587 802.592 627.459 756.624 662.628 717.782C736.404 636.305 850.047 628.836 936.424 707.555C982.477 749.5 1023.95 787.997 1081 839.94C1049.95 877.288 986.944 943.826 952.462 981.864C917.407 1020.59 873.76 1042.54 828.395 1047.02L828.395 1227.44C914.429 1223.54 996.453 1188.03 1056.48 1121.83C1124.64 1046.56 1153.17 1006.69 1203.58 951.066L1324.78 1061.5C1407.15 1136.54 1528.81 1148.84 1624.46 1091.84L1534.65 1010.02L1475.88 956.467L1417.11 902.915L1079.74 595.509L1036.89 556.437L1026.35 546.784L1023.26 544.026C1023.26 544.026 1022.57 543.337 1021.43 542.417C1013.41 535.522 977.436 506.333 923.135 485.188C830.686 449.334 685.311 437.727 535.697 603.094C468.107 677.791 435 767.427 435 855.799C435 954.858 476.47 1052.42 557.349 1126.09C615.43 1179.06 683.363 1211.01 752.099 1222.73L752.099 1037.83C726.208 1028.98 701.005 1014.27 677.75 993.126Z" fill="white"/>
<path d="M1079.74 595.51L1417 902.8L1434.98 919.119C1533.05 955.433 1644.05 927.737 1713.48 847.984L1051.21 569.423L1079.74 595.51Z" fill="white" fill-opacity="0.6"/>
<path d="M1447.47 736.054C1523.65 719.851 1590.1 669.057 1624.46 595.395L991.298 520.238C1006.99 530.466 1017.53 539.085 1021.43 542.417C1022.57 543.337 1023.26 544.026 1023.26 544.026L1026.35 546.784L1036.89 556.437L1051.21 569.423L1447.47 736.054Z" fill="white" fill-opacity="0.3"/>
</g>
<g opacity="0.9">
<path d="M1549.55 167.472C1575.26 214.872 1578.95 263.831 1564.16 306.247C1550.99 344.024 1523.07 376.764 1482.94 398.666C1398.76 444.608 1302.99 418.128 1254.43 328.468C1228.53 280.686 1205.42 237.06 1173.33 177.882C1209.64 156.026 1280.65 119.301 1319.99 97.8637C1359.99 76.0233 1402.25 70.4733 1440.91 79.808L1492.72 -68.8383C1420.72 -90.3248 1342.94 -84.6233 1274.48 -47.3261C1196.71 -4.88487 1161.75 19.7774 1104.25 51.1275L1036.11 -74.6642C989.796 -160.143 893.092 -205.21 797.914 -185.718L848.415 -92.5151L881.455 -31.5185L914.496 29.4782L1104.18 379.627L1128.26 424.121L1134.17 435.101L1135.93 438.261C1135.93 438.261 1136.29 439.027 1136.97 440.113C1141.6 448.096 1162.86 482.475 1201.52 515.489C1267.39 571.577 1383.83 622.885 1554.58 529.606C1631.72 487.473 1684.74 423.131 1710.11 350.322C1738.56 268.709 1732.41 176.418 1686.93 92.503C1654.29 32.1771 1607.49 -13.6516 1554.23 -43.0471L1501.13 109.292C1519.92 124.017 1536.46 143.373 1549.55 167.472Z" fill="white"/>
<path d="M1104.18 379.627L914.558 29.6059L904.426 10.9967C834.062 -47.0817 734.651 -56.1412 654.553 -10.3695L1120.19 409.31L1104.18 379.627Z" fill="white" fill-opacity="0.6"/>
<path d="M841.568 158.235C774.15 149.708 704.822 172.476 655.354 223.296L1155.43 467.038C1145.43 454.105 1139.23 443.977 1136.97 440.113C1136.29 439.027 1135.93 438.261 1135.93 438.261L1134.17 435.101L1128.26 424.121L1120.19 409.31L841.568 158.235Z" fill="white" fill-opacity="0.3"/>
</g>
<g opacity="0.9">
<path d="M134.238 -211.146C167.709 -159.188 176.134 -103.55 162.891 -53.7993C151.096 -9.48994 122.002 30.3334 78.0244 58.8219C-14.2273 118.58 -125.967 96.5655 -189.189 -1.7234C-222.902 -54.1032 -253.075 -101.973 -294.844 -166.843C-255.236 -194.949 -177.233 -243.04 -134.127 -270.928C-90.2893 -299.335 -42.465 -309.318 2.52663 -301.979L48.9366 -476.329C-35.2071 -494.684 -123.605 -481.469 -198.641 -432.945C-283.872 -377.74 -321.695 -346.543 -384.712 -305.76L-473.429 -443.657C-533.722 -537.361 -648.127 -580.539 -755.227 -550.063L-689.482 -447.892L-646.466 -381.025L-603.45 -314.158L-356.501 69.6866L-325.148 118.465L-317.447 130.504L-315.167 133.965C-315.167 133.965 -314.68 134.808 -313.81 135.991C-307.834 144.717 -280.581 182.177 -233.547 216.579C-153.432 275.007 -15.9339 323.618 171.183 202.301C255.713 147.505 310.763 69.4011 333.495 -15.9971C358.977 -111.723 343.999 -216.673 284.79 -308.661C242.29 -374.796 184.861 -423.143 121.453 -452.151L73.8906 -273.47C96.6336 -258.259 117.205 -237.561 134.238 -211.146Z" fill="white"/>
</g>
</g>
</g>
</svg>
