<svg width="1439" height="320" viewBox="0 0 1439 320" fill="none" xmlns="http://www.w3.org/2000/svg">
<mask id="mask0" mask-type="alpha" maskUnits="userSpaceOnUse" x="-1" y="0" width="1440" height="320">
<rect x="-1" width="1440" height="320" fill="#2A2B2D"/>
</mask>
<g mask="url(#mask0)">
<path opacity="0.15" d="M-143.34 174.746C-87.2879 230.798 -3.3961 230.122 51.3737 175.352C106.144 120.582 108.29 38.1602 59.3322 -10.7976C32.6802 -37.4495 18.4173 -48.752 -1.26811 -68.4374L47.645 -117.35L15.0859 -179L-155.853 -8.06153C-155.853 -8.06153 -241.064 77.0221 -143.34 174.746ZM-98.2872 129.309C-127.112 100.484 -127.67 57.9644 -96.8418 27.1363C-80.3658 10.6603 -65.3065 -4.14322 -44.9046 -24.5451C-31.671 -12.3412 -8.09048 12.269 5.33137 25.6909C34.5399 54.8993 35.0976 97.4194 4.26945 128.248C-26.5587 159.076 -69.0787 158.518 -98.2872 129.309Z" fill="white"/>
<path opacity="0.15" d="M1341.66 355.746C1397.71 411.798 1481.6 411.122 1536.37 356.352C1591.14 301.582 1593.29 219.16 1544.33 170.202C1517.68 143.55 1503.42 132.248 1483.73 112.563L1532.64 63.6495L1500.09 2L1329.15 172.938C1329.15 172.938 1243.94 258.022 1341.66 355.746ZM1386.71 310.309C1357.89 281.484 1357.33 238.964 1388.16 208.136C1404.63 191.66 1419.69 176.857 1440.1 156.455C1453.33 168.659 1476.91 193.269 1490.33 206.691C1519.54 235.899 1520.1 278.419 1489.27 309.248C1458.44 340.076 1415.92 339.518 1386.71 310.309Z" fill="white"/>
</g>
</svg>
