<svg width="599" height="479" viewBox="0 0 599 479" fill="none" xmlns="http://www.w3.org/2000/svg">
<path fill-rule="evenodd" clip-rule="evenodd" d="M320.08 259.48C319.33 258.74 319.18 257.79 319.44 256.84C319.94 256.63 320.18 256.06 320.39 255.75C320.9 255.56 321.28 254.84 321.6 255.63C322.98 255.5 324.44 256.31 325.79 256.11C327.57 255.68 329.33 254.84 331.27 254.81C337.71 254.02 344.64 256.4 350.75 253.86C350.76 253.81 350.85 253.78 350.84 253.74C350.84 253.72 350.86 253.71 350.88 253.7C350.25 253.59 351.74 253.86 351.59 253.83C351.18 253.82 350.53 254.45 350.55 254.31C347.66 251.55 343.24 251.92 339.55 250.23C336.49 248.79 333.81 248.95 331.28 247.58C330.66 246.52 330.6 244.44 331.85 243.88C331.88 243.85 331.76 243.5 331.95 243.82C334.68 243.89 337.48 245.9 339.82 247.26C344.02 249.28 349.07 249.79 352.33 253.44C352.24 259 337.02 255.04 333.53 256.83C328.8 257.57 325.19 260.7 320.08 259.48Z" fill="black"/>
<path fill-rule="evenodd" clip-rule="evenodd" d="M313.89 254.44C312.9 254.77 311.98 254.63 311.1 254.14C311.05 253.58 310.59 253.18 310.35 252.9C310.34 249.75 325.61 240.53 329.17 238.34C335.01 234.91 340.76 236.41 347.76 235.89C348.08 235.83 348.09 235.48 348.44 235.45C351.56 236.05 355.48 235.06 358.77 235.93C363.84 238.55 369.32 241.19 373.76 243.98C374.33 245.28 374.12 247.39 372.55 247.55C372.51 247.57 372.6 247.96 372.42 247.58C367.03 245.54 362.96 240.44 357.48 238.16C347.74 237.6 332.39 234.91 325.36 243.21C321.25 246.85 317.18 250.02 313.89 254.44Z" fill="black"/>
<path fill-rule="evenodd" clip-rule="evenodd" d="M348.31 247.93C347.95 247.71 347.69 247.27 347.5 246.67C347.57 246.35 347.5 245.96 347.46 245.71C347.6 245.45 347.51 244.84 347.95 245.19C350.96 244.33 354.2 245.59 357.32 245.27C359.86 245.66 362.08 247.36 364.73 247.91C366.7 248.44 369.3 249.44 370.95 250.37C371.16 251.04 370.55 252.65 370.06 252.74C367.71 252.19 366.02 249.39 363.26 249.04C360.5 247.21 357.04 245.5 353.7 246.57C351.81 246.86 349.96 246.92 348.31 247.93Z" fill="black"/>
<path fill-rule="evenodd" clip-rule="evenodd" d="M321.76 277.59C321.02 277.31 320.49 276.68 320.13 275.78C320.3 275.3 320.15 274.7 320.1 274.34C320.29 274.11 320.26 273.64 320.43 273.4C322.84 272.81 326.24 272.81 328.71 272.13C335.41 271.66 340.46 268.32 345.52 263.83C345.59 262.72 347.45 261.79 348.7 261.11C353.4 260.7 357.04 266.36 360.33 268.78C363.27 269.95 361.06 273.28 359.39 273.3C358.21 273.04 357.99 271.97 357.1 271.13C356.42 269.94 355.4 268.94 354.84 267.64C353.2 266.33 351.33 263.35 349.27 263.25C346.91 263.69 345.48 266.72 343.43 267.59C340.23 270.27 336 271.9 332.32 273.76C328.73 275.2 325.2 275.78 321.76 277.59Z" fill="black"/>
<path fill-rule="evenodd" clip-rule="evenodd" d="M350.36 253.39L350.45 254.76H351.1L352.03 253.9C352.11 253.07 350.74 253.41 350.36 253.39Z" fill="black"/>
<path fill-rule="evenodd" clip-rule="evenodd" d="M363.81 267.64C362.66 266.74 361.61 265.67 360.45 264.64C358.71 263.66 357.27 261.86 355.61 260.75C356.33 261.12 357.06 261.57 357.56 262C360.88 262.87 362.5 266.04 364.84 267.94C365.37 268.07 366.58 266.87 366.51 266.03C365.69 264.6 364.04 264.09 362.65 262.81C360.59 261.52 358.04 260.38 356.04 259.82C354.99 259.46 353.99 258.38 353.14 259.14C352.36 260.21 356.94 262.98 357.76 263.79C360.07 265.96 361.49 268.85 363.6 271.12C363.51 271.69 364 271.38 364.34 271.4C364.55 271.27 364.87 271.02 365.21 270.97C365.65 270.51 365.89 270.02 365.85 269.5C365.04 269.08 364.35 268.23 363.81 267.64Z" fill="black"/>
<path fill-rule="evenodd" clip-rule="evenodd" d="M369.87 262.54C366.57 259.08 361.79 256.4 357.72 254.4L357.74 254.25C362.04 254.54 365.18 257.85 368.91 259.57C369.09 260.13 369.44 259.76 369.82 259.61C369.96 259.4 370.14 259.04 370.45 258.88C370.64 258.26 370.63 257.69 370.33 257.2C367.49 256.36 365.18 254.98 362.33 254.13C360.43 253.98 358.49 253.02 356.53 253.08C356.03 253.08 355.46 253.03 354.98 253.09C353.23 253.31 356.5 254.45 356.71 255.02C361.72 257.49 365.86 261.4 369.14 265.66C370.64 265.88 371.86 263.45 369.87 262.54Z" fill="black"/>
<path d="M406.41 435.32H468.13C464.58 412.44 491.67 179.97 462.72 180.53C448.24 189.61 415.29 188.11 415.29 188.11C412.4 190.4 408.66 191.84 408.66 191.84L401.29 216.66C403.46 267.57 405.23 376.11 406.41 435.32Z" fill="black"/>
<path d="M460.7 408.38C460.7 418.19 461.7 427.59 463.71 435.32H533.1L519 348.13C518.8 340.91 523.32 309.9 523.32 309.9L511.76 200.93C495.35 192.57 465.02 180.52 465.02 180.52C465.02 180.52 462.97 279.3 461.45 289.87C459.83 320.25 461.41 361.51 460.7 408.38Z" fill="#CED5E0"/>
<path d="M378.66 340.84C383.99 332.19 388.74 310.5 388.74 310.5C397.35 350.04 389.37 378.08 379.67 435.32H410.94C413.8 362.61 407.87 259.71 408.65 191.84C408.65 191.84 382.68 206.4 379.14 219.34C375.6 232.29 345.41 307.01 344.46 310.53C343.51 314.05 280.94 345.56 280.94 345.56L299.79 384.19C299.81 384.18 373.34 349.49 378.66 340.84Z" fill="#CED5E0"/>
<path d="M117.2 208.74C117.2 208.74 137.71 217.63 149.15 220.42C174.72 224.47 213.34 266.5 230.69 276.84C235.71 279.63 311.18 247.23 311.18 247.23L326.81 283.05C326.81 283.05 247.8 316.65 234.41 316.56C221.01 316.47 176.35 292.47 176.35 292.47C176.35 292.47 178.72 302.05 172.27 321.12C167.93 333.95 163.71 360.19 164.46 370.98C165.21 381.77 179.43 400.15 179.43 434.68H36.57C36.57 434.68 42.76 398.79 50.21 382.84C57.66 366.89 63.32 356.97 47.93 323.07C20.28 258.96 6.10997 209.81 117.2 208.74Z" fill="#232323"/>
<path fill-rule="evenodd" clip-rule="evenodd" d="M261.64 1.05003C267.63 0.330028 271.48 1.05003 273.61 1.93003C271.65 2.44003 272.24 3.03003 272.28 3.40003C220.7 7.62003 194.66 66.84 231.27 105.38C231.26 105.38 228.79 105.07 228.79 105.06L229.78 104.44C226.51 114.71 223.04 125.14 219.75 135.62L218.1 134C232.41 129.34 242.23 125.96 257.49 120.68L256.77 121.85C256.77 121.84 256.56 120.24 256.56 120.23C314.66 137.23 357.68 66.14 315.72 22.08C303.5 5.38003 260.39 2.70003 277.95 0.780028C286.89 0.190028 302.55 5.63003 311.64 13.72C363.28 55.91 322.69 138.93 257.73 122.1L258.27 121.63C258.27 121.64 258.31 121.98 258.31 121.99C246.04 126.04 231.3 131.26 217.85 135.89C221.26 125.55 224.81 114.75 228.51 103.53C228.52 103.53 228.97 103.59 228.98 103.59L228.49 104.54C195.39 69.54 215.12 10.96 261.64 1.05003Z" fill="black"/>
<path d="M503.72 422.18C477.44 431.23 485.86 426.83 478.77 452.49C476.97 454.33 480.95 455.2 483.54 453.69C485.67 452.3 487.97 445.95 487.97 445.95C487.97 445.95 489.26 444.01 489.89 444.77C494.43 454.75 492.38 453.78 484.01 456.62C485.06 460.34 487.14 463.01 491.63 461.61C493.08 462.93 495.21 464.91 497.8 465.56C499.09 465.77 499.75 466.54 500.1 467.13C500.45 467.72 503.33 468.67 506.02 468.95C519.23 468.25 524.47 441.49 529.43 432.57L507.91 420.14L503.72 422.18Z" fill="white"/>
<path fill-rule="evenodd" clip-rule="evenodd" d="M398.32 82.8499C399.92 81.5299 401.36 81.1299 402.53 81.3499C402.34 82.1399 402.91 82.4399 403.17 82.7099C402.96 84.1299 402.9 84.5099 401.73 85.2399C392.47 96.7699 393.63 111.21 394.32 125.06C396.63 138.87 395.41 153.46 403.12 166.33C411.56 175.44 427.77 174.93 438.54 172.95C441.02 172.11 446.58 170.64 447.62 173.82C447.56 174.24 446.77 174.77 446.54 175.08C446.5 175.13 447.08 175.29 446.37 175.21C432.73 179.07 415.64 178.59 403.67 169.99C397.65 163.81 396.59 154.49 395.37 146.33C393.55 135.88 393.05 124.59 391.81 113.8C390.66 102.79 391.92 92.2599 398.32 82.8499Z" fill="black"/>
<path fill-rule="evenodd" clip-rule="evenodd" d="M411.09 130.83C410.48 131.44 410.04 132.27 409.58 133.08C408.11 135.11 407.06 137.9 406.92 140.43C406.56 141.12 406.4 143.07 407.32 143.16L406.98 143.03C407.38 142.78 407.76 143.06 408.14 142.82C408.63 142.89 409.02 142.58 409.38 143C409.66 143.29 409.39 144.77 408.98 145.18C408.26 145.49 407.38 144.74 406.43 144.88C404.04 143.32 405.71 140.8 405.87 138.88C406.79 137.91 406.75 136.18 407.36 135.11C408.75 133.11 408.56 130.32 410.08 128.47C409.92 128.02 410.4 128.31 410.63 128.29C411.19 128.53 412.12 129.05 412.19 129.64C411.66 129.84 411.32 130.41 411.09 130.83Z" fill="black"/>
<path fill-rule="evenodd" clip-rule="evenodd" d="M429.64 152.2C430.27 151.63 431.04 150.57 431.34 149.77C433.47 147.79 432.81 144.81 433.46 142.47C434.14 141.91 436.55 142.81 435.47 144.15C435.06 147.03 433.11 149.7 431.42 151.95C429.8 152.91 428.78 154.63 427.2 155.47C424.82 156.4 419.62 160.57 417.6 159.06C417.58 158.84 417.56 158.49 417.41 158.24C417.46 157.68 417.6 157.25 417.88 156.98C419.77 157.38 421.58 156.73 423.38 156.15C425.76 155.71 428 153.83 429.64 152.2Z" fill="black"/>
<path fill-rule="evenodd" clip-rule="evenodd" d="M423.41 126.73C419.03 126.3 419.81 119.43 424.17 119.99C428.55 120.42 427.77 127.28 423.41 126.73Z" fill="black"/>
<path fill-rule="evenodd" clip-rule="evenodd" d="M402.36 126.69C397.98 126.26 398.76 119.39 403.12 119.95C407.51 120.38 406.73 127.24 402.36 126.69Z" fill="black"/>
<path fill-rule="evenodd" clip-rule="evenodd" d="M469.99 121.03C467.14 120.75 463.36 122.21 462.88 125.37C462.07 126.45 462.31 127.1 463.19 128.01C463.56 127.94 464.15 127.85 464.65 128.15C465.51 127.64 466.24 127.05 466.8 126.72C466.6 124.88 469.47 124.42 470.86 124.58C474.7 124.99 474.79 130.62 474.57 133.88C475.37 142.18 469.14 143.27 462.4 142.32C462.12 154.01 461.96 165.58 462.06 177.23C461.63 181.57 460.74 186.78 461.84 190.96C461.63 191.42 461.89 191.05 461.94 191.08C462.95 192.66 464.03 192.5 464.78 190.99C465 186.34 464.7 181.43 464.94 176.03C464.42 164.91 463.44 154.39 463.83 143.88L462.8 143.76C466.49 144.18 471.19 145.02 473.91 141.61C478.07 135.73 479.59 121.95 469.99 121.03Z" fill="black"/>
<path fill-rule="evenodd" clip-rule="evenodd" d="M470.77 129.17C470.02 128.26 468.27 128.62 467.44 129.19C467.43 129.24 467.47 129.34 467.43 129.35C467.09 129.25 467.02 129.7 466.66 129.85L466.83 129.72C466.46 129.95 466.32 130.14 466.25 130.52C466.06 130.62 465.91 130.79 465.94 131.04C465.68 131.11 465.53 131.67 465.48 131.95C465.4 131.94 465.34 131.96 465.36 132C465.57 132.13 465.78 132.25 465.72 132.31C465.89 132.4 465.92 132.42 466.04 132.49C465.89 132.48 466.07 132.59 466.28 132.68C466.44 132.47 466.59 132.64 466.83 132.58C467.31 132.71 467.53 132.68 467.62 132.62C467.52 132.45 467.66 132.45 467.73 132.39C467.58 132.22 467.74 132.29 467.79 132.28C467.77 132.08 467.95 132.17 467.85 131.99C467.92 132.04 467.88 131.99 467.94 132.02C467.83 131.87 468.1 131.79 468.08 131.72L468.22 131.61C468.2 131.6 468.22 131.55 468.21 131.51C468.25 131.56 468.27 131.54 468.29 131.54C468.45 131.28 468.87 131.01 469.25 130.92C469.39 130.88 469.48 130.79 469.6 130.92C469.65 130.94 469.72 130.78 469.78 130.94C469.8 130.92 469.81 130.88 469.83 130.86C469.99 130.96 470.21 130.88 470.31 131.17C470.32 131.19 470.37 131.04 470.37 131.07C470.48 131.05 470.43 131.32 470.53 131.15C470.65 131.23 470.77 130.89 470.82 131.05C470.99 130.88 470.97 130.98 471.02 130.99C471.24 130.92 471.18 131 471.31 131.06C471.59 130.84 471.65 130.45 471.5 130.24C471.49 130.21 471.59 130.18 471.55 130.15C471.55 130.12 471.5 130.17 471.48 130.18C471.62 130.01 471.48 129.91 471.4 129.97C471.4 129.99 471.42 129.99 471.39 130.03C471.37 129.99 471.27 129.9 471.28 129.79C471.34 129.77 471.29 129.92 471.37 129.86C471.33 129.73 471.3 129.61 471.23 129.58C471.16 129.69 471.29 129.68 471.24 129.8C471.19 129.74 471.14 129.61 471.09 129.61C471.3 129.34 470.89 129.31 470.77 129.17ZM471.05 129.49C471.1 129.51 470.95 129.47 471.05 129.49V129.49ZM470.74 129.25C470.79 129.14 470.75 129.3 470.78 129.28C470.74 129.38 470.74 129.26 470.74 129.25ZM470.83 129.38L470.77 129.32C470.8 129.27 470.91 129.24 470.83 129.38ZM471.41 130.06C471.47 129.99 471.45 130.09 471.47 130.09C471.41 130.16 471.43 130.06 471.41 130.06Z" fill="black"/>
<path fill-rule="evenodd" clip-rule="evenodd" d="M293.48 379.53C294.26 379.46 295.03 379.76 295.81 380.34C295.9 380.85 296.31 381.29 296.54 381.59C296.45 381.91 296.7 382.31 296.63 382.63C295.15 383.71 293.23 385.19 291.18 385.56C287.08 387.63 282.74 385.23 279.18 382.98C273.02 379.95 269.7 373.76 264.05 369.75C260.62 367.22 256.21 364.27 252.44 362.81C252.06 361.8 251.72 359.65 253.01 359.11C253.04 359.08 252.89 358.73 253.12 359.05C257.53 359.43 260.31 364.1 263.85 366.46C270.52 371.77 274.98 381.45 283.94 383.13C285.43 383.46 287.03 384 288.53 383.42C290.13 382.35 292.41 381.52 293.48 379.53Z" fill="black"/>
<path fill-rule="evenodd" clip-rule="evenodd" d="M244.79 359.58C235.04 361.2 225.45 361.88 215.74 363.34C212.9 363.26 209.31 362.81 206.76 364.14C206.42 363.96 206.71 364.2 206.7 364.24C205.84 365.35 206.99 367.12 208.07 367.73C212.49 366.92 218.56 365.98 223.12 364.65C230.4 362.79 237.53 362.47 244.66 361.13C244.69 360.62 244.73 360.1 244.79 359.58Z" fill="black"/>
<path fill-rule="evenodd" clip-rule="evenodd" d="M249.61 387.76C247.12 382.51 239.79 387.68 236.82 389.82C234.27 392.99 233.74 398.67 236.62 401.78C239.37 403.29 242.7 402.99 245.8 402.59C245.06 401.96 244.37 401.18 243.84 400.37C241.68 400.69 239.3 401.53 237.28 400.42C234.84 398.57 235.4 392.35 237.77 390.51C242.94 386.16 252.84 385.19 244.87 394.11C244.93 394.14 244.99 394.18 245.06 394.21C247.45 392.83 250.74 391.14 249.61 387.76Z" fill="black"/>
<path fill-rule="evenodd" clip-rule="evenodd" d="M253.75 401.84C253.67 402.58 253.29 402.95 252.75 403.04C252.39 402.79 252.01 402.79 251.77 402.75C248.78 401.09 251.12 396.7 252.81 394.92C253.68 394.23 255.05 393.39 254.59 392.14C253.7 388.77 246.65 393.35 245.09 394.87C245.08 395.74 243.9 396.51 243.93 397.64C244.04 400.49 247.3 402.8 250.02 402.5C250.98 401.91 251.65 402.45 252.52 403.03C252.85 403.08 253.04 403.01 252.9 403.4C252.97 403.63 252.86 403.96 252.85 404.16C252.85 404.19 253.14 404.23 252.82 404.25C249.35 407.02 243.08 402.88 242.63 398.81C241.06 393.54 256.43 384.86 255.89 393.82C254.28 396.38 251.31 398.82 253.75 401.84Z" fill="black"/>
<path fill-rule="evenodd" clip-rule="evenodd" d="M260.25 397.01C258.84 392.94 252.82 395.5 251.43 398.38C252.05 398.92 252.02 399.92 252.37 400.63C252.63 400 252.85 399.36 252.91 398.82C252.87 398.86 252.82 398.89 252.8 398.93L252.93 398.72C252.92 398.75 252.92 398.79 252.91 398.82C253.84 396.8 257.83 394.59 259.01 396.84C260.14 399.76 257.01 403.98 253.79 402.62C253.69 402.04 252.84 403.12 252.33 403.08C251.9 403.57 251.77 404.23 252.17 404.85C255.24 406.01 258.26 404.6 259.48 401.7C259.67 400.16 260.63 398.7 260.25 397.01Z" fill="black"/>
<path fill-rule="evenodd" clip-rule="evenodd" d="M235.39 397.92C235.25 397.02 235.36 396.11 235.28 395.21C235.28 395.22 235.29 395.23 235.29 395.25C235.27 395.14 235.24 395.03 235.23 394.92C234.08 395.21 232.51 394.9 231.22 394.85C226.05 394.99 220.45 393.56 215.7 391.47C213.06 391.01 210.24 389.95 208.45 387.92C207.23 387.65 206.64 385.85 205.25 386.07C204.52 386.16 203.3 388.43 203.61 389.49C206.12 391.28 210.47 392.87 213.59 393.35C221 394.89 227.88 396.41 235.41 398.01C235.41 397.98 235.39 397.95 235.39 397.92Z" fill="black"/>
<path fill-rule="evenodd" clip-rule="evenodd" d="M285.35 384.53C285.14 384.24 282.15 383.7 282.67 384.9C282.55 385.54 281.95 388.9 281.14 388.56C281.11 388.58 281.16 388.81 281.12 388.85C279.77 388.96 278.79 388.08 277.54 387.89C276.08 387.14 275.16 385.36 273.64 384.91C272.95 384.34 273.27 384.71 273.04 385.18C273.64 385.96 274.13 386.84 274.87 387.5C275.57 387.34 276.3 387.81 276.49 388.5C278.56 389.27 280.6 390.59 282.71 389.41C283.48 388.31 283.94 387.1 284.89 386.22C284.89 385.66 285.84 385.16 285.35 384.53Z" fill="black"/>
<path d="M466.05 83.4401C463.85 59.4901 424.04 67.4301 410.95 64.6101C399.03 63.0401 386.25 66.6801 386.79 79.3501C387.36 92.4701 394.9 93.7601 394.9 93.7601C397.84 95.2501 410.58 97.3901 432.1 97.3901C453.62 97.3901 453.62 97.3901 453.62 97.3901C458.59 102.15 451.52 132.67 465.07 127.92C465.82 124.72 472.27 122.3 472.27 122.3C472.27 122.3 475.55 103.62 476.33 97.0801C477.11 90.5401 466.05 83.4401 466.05 83.4401Z" fill="black"/>
<path fill-rule="evenodd" clip-rule="evenodd" d="M416.83 189.5C416.47 184.5 416.36 179.45 416.42 174.71C415.82 174.75 415.37 174.32 414.85 174.1C415.03 181.51 414.65 188.76 414.11 196.14C413.46 197.52 413.32 199.05 412.85 200.46C412.74 201.79 412.04 202.7 412.57 203.86C412.3 204.08 412.61 203.92 412.65 203.94C413.43 204.97 415.47 204.65 416.38 203.87C417.11 199.72 417.22 193.9 416.83 189.5Z" fill="black"/>
<path d="M397.13 254.6C397.13 254.61 397.14 254.65 397.15 254.66C397.17 254.65 397.15 254.62 397.16 254.58C397.15 254.59 397.15 254.59 397.13 254.6Z" fill="black"/>
<path d="M397.16 254.58C397.23 254.55 397.22 254.55 397.16 254.58V254.58Z" fill="black"/>
<path d="M410.98 329.51C411.51 318.31 407.51 304.89 405.23 294.51C402.17 281.01 400.13 267.86 397.15 254.66C397.1 254.66 396.77 254.74 396.74 254.78C396.86 254.72 397.05 254.64 397.16 254.59C398.73 250.16 402.31 246.3 404.82 242.32C402.07 238.47 399.5 234.64 397.3 230.4C397.3 230.42 397.29 230.45 397.29 230.47C397.29 230.43 397.29 230.37 397.27 230.33C396.95 230.34 396.54 230.48 396.23 230.59C396.53 230.47 396.95 230.34 397.23 230.25C397.24 230.27 397.26 230.31 397.27 230.33C397.28 230.33 397.27 230.34 397.28 230.34C397.28 230.36 397.29 230.38 397.3 230.4C399.86 217.75 403.51 206.05 406.51 193.11C405.34 193.82 403.75 194.81 401.92 196.02C399.73 207.72 397.09 218.57 395.55 230.37C397.19 234.69 400.65 238.55 402.9 242.31C402.97 242.21 403.04 242.12 403.11 242.02L403.09 242.6C403.03 242.51 402.96 242.41 402.9 242.31C400.32 246.59 395.66 250.54 395.89 255.52C398.07 266.67 400.28 277.9 401.74 289.05C405.04 303.1 406.5 317.52 408.39 331.66C408.82 335.15 411.34 338.96 411.73 341.51C411.06 337.11 410.98 329.51 410.98 329.51Z" fill="black"/>
<path fill-rule="evenodd" clip-rule="evenodd" d="M477.54 280.08C480.6 267 483.32 258.22 485.07 246.53C483.84 241.99 480.63 238.62 477.93 234.98C477.77 235.17 477.62 235.35 477.46 235.54L477.47 234.39L477.93 234.98C481.15 230.66 485.97 226.61 487.05 221.19C484.77 209.53 482.28 197.92 479.09 186C477.37 185.27 475.83 184.61 474.51 184.06C477.62 196.64 481.96 208.43 484.76 221.14C483.87 226.14 479 230.82 476.03 234.95C478.75 238.81 482.61 242.56 483.41 247.21C482.28 255.99 479.63 263.97 477.88 272.18C474.48 286.02 470.58 300.63 467.06 314.3C463.98 325.6 459.52 335.43 460.88 347.67C468.07 326.99 472.58 301.51 477.54 280.08Z" fill="black"/>
<path d="M367.66 331.21C361.79 337.08 361.05 346.48 362.79 352.01C379.09 342.86 380.02 340.93 384.61 326.08C384.62 326.09 375.9 322.98 367.66 331.21Z" fill="black"/>
<path fill-rule="evenodd" clip-rule="evenodd" d="M345.13 310.93C345.89 311.75 346.69 312.58 347.17 313.64C349.9 316.54 353.13 319.54 354.71 323.32C358.05 324.97 354.81 320.47 354.09 319.83C353.15 317.08 349.79 314.62 348.12 312.28C347.9 312 347.65 311.31 347.6 311.19C346.46 310.33 346.68 308.69 345.32 308.16C344.93 309.21 344.65 309.96 344.53 310.35C344.75 310.53 344.95 310.72 345.13 310.93Z" fill="black"/>
<path d="M282.6 348.93L277.02 350.34L292.37 385.4L298.88 382.28L282.6 348.93Z" fill="black"/>
<path d="M266.05 92.55L243.42 72.44L252.06 62.72L265.7 74.85L296.98 44.76L305.99 54.12L266.05 92.55Z" fill="#34a7ce"/>
<path fill-rule="evenodd" clip-rule="evenodd" d="M156.14 124.79C155.54 131.22 158.54 186.3 142.23 191.76C136.03 195.53 121.89 195.97 117.47 195.69L116.63 205.28C109.38 210.74 87.94 208.24 82.24 204.85C82.24 204.85 91.99 187.5 94.77 179.29C102.27 154.46 91.49 147.18 110.49 129.34C119.96 122.8 134.41 116.93 137.19 110.82C137.19 110.82 154.97 119.07 156.14 124.79Z" fill="white"/>
<path fill-rule="evenodd" clip-rule="evenodd" d="M139.89 152.37C140.48 152.95 140.89 153.75 141.34 154.53C142.75 156.47 143.75 159.15 143.89 161.57C144.24 162.23 144.39 164.1 143.5 164.19L143.83 164.06C143.2 163.97 142.02 163.59 141.53 164.04C141.26 164.32 141.52 165.74 141.91 166.13C142.66 166.41 143.43 165.71 144.35 165.85C146.65 164.35 145.04 161.93 144.88 160.1C144 159.17 144.04 157.51 143.45 156.49C142.12 154.57 142.3 151.9 140.84 150.13C141 149.7 140.54 149.98 140.31 149.95C139.77 150.18 138.88 150.68 138.81 151.24C139.34 151.42 139.67 151.97 139.89 152.37Z" fill="black"/>
<path fill-rule="evenodd" clip-rule="evenodd" d="M122.1 172.85C121.49 172.3 120.76 171.29 120.47 170.52C118.43 168.62 119.06 165.77 118.44 163.52C117.79 162.98 115.48 163.84 116.52 165.13C116.92 167.9 118.78 170.45 120.41 172.61C121.97 173.53 122.94 175.18 124.46 175.99C126.81 176.9 131.63 180.86 133.66 179.44C133.68 179.23 133.7 178.9 133.84 178.66C133.79 178.13 133.66 177.71 133.39 177.45C131.58 177.83 129.84 177.21 128.12 176.65C125.82 176.22 123.67 174.43 122.1 172.85Z" fill="black"/>
<path fill-rule="evenodd" clip-rule="evenodd" d="M128.07 148.44C132.27 148.03 131.53 141.44 127.34 141.98C123.15 142.39 123.89 148.97 128.07 148.44Z" fill="black"/>
<path fill-rule="evenodd" clip-rule="evenodd" d="M148.25 148.4C152.45 147.99 151.71 141.4 147.52 141.94C143.32 142.35 144.07 148.93 148.25 148.4Z" fill="black"/>
<path fill-rule="evenodd" clip-rule="evenodd" d="M160.72 136.5C173.72 81.4801 108.23 86.3801 81.01 90.9801C82.92 87.5201 83.54 83.4501 82.17 79.4101C80.99 77.5701 79.14 76.4201 77.93 74.7101C75.59 73.7101 73.11 73.5401 70.64 73.0801C68.58 73.4301 66.07 73.6101 64.09 74.5801C63.14 74.7901 62.21 75.0901 61.33 75.4701C56.94 76.1301 52.77 78.0701 50.95 81.8301C50.13 84.2401 49.66 87.2401 50.65 89.6301C52.69 92.2701 54.95 96.2201 58.05 97.9601C58.1 98.0301 58.21 98.1401 58.37 98.2801C59.58 99.6301 60.98 100.78 62.47 101.68C62.2 101.96 61.92 102.24 61.65 102.52C61.72 102.54 61.78 102.55 61.85 102.57C57.73 106.88 58.83 119.23 54.29 127.4C54.29 127.4 42.84 139.64 44.25 148.41C41.49 176.43 -20.38 201.55 7.00003 244.83C7.00003 244.83 14.42 253.79 20.41 259C26.41 264.21 29.02 262.88 29.02 262.88C29.38 230.32 63.52 216.77 63.52 216.77L66.85 215.47C68.66 214.98 74.45 211.45 77.74 208.48C87.75 198.85 99.42 182.37 100.33 164.96C99.8 175.06 112.35 181.93 113.15 192.38C109.8 191.76 106.36 190.11 103.19 190.16C102.97 189.97 102.94 189.97 102.95 190.02C103.23 190.46 101.88 190.49 101.67 190.98C101.02 196.64 109.14 195.35 112.92 196.33C108.37 214.16 84.65 216.95 106.72 237.5C86.92 215.37 108.17 215.71 113.98 196.48C114.47 196.55 114.97 196.61 115.48 196.68C115.49 196.77 115.5 196.87 115.51 196.96C156.82 201 154.48 173.52 157.82 142.02C158.54 141.04 159.35 139.75 160.08 138.14C164.95 142.96 171.48 145.87 176.2 151.02C179.1 153.97 183.72 156.55 183.54 161.18C181.32 166.61 173.63 167.65 171.16 173.34C166.07 179.56 172.08 188.7 178.97 189.1C175.37 187.01 170.34 184.73 170.05 179.79C173.53 157.31 207.01 171.71 160.72 136.5ZM79.78 78.7701C81.49 80.7401 81.75 83.2701 81.4 85.7801C81.71 87.0701 81.47 88.3201 80.94 89.5101C80.91 86.5701 80.15 83.0401 77.73 79.4401C76.15 77.0801 73.91 75.5901 71.45 74.8301C74.51 75.1501 77.62 76.7201 79.78 78.7701ZM53.29 91.7001C50.19 88.5901 51.22 83.1901 53.97 80.2901C54.88 80.0201 55.71 79.4801 56.56 78.9301C55.47 80.2301 54.7 81.7601 54.39 83.5001C53.36 88.0201 54.3 92.1701 56.32 95.5401C55.17 94.3401 54.14 93.0301 53.29 91.7001ZM153.98 127.57C154.14 128.93 154.21 130.39 154.25 131.73C149.01 127.28 143.54 123.27 139.31 117.85C143.43 119.46 150.33 122.71 153.98 127.57ZM119.43 129.03C117.58 131.95 115.77 135.85 113.73 138.38C111.01 143.76 105.37 146.4 101.57 150.84C102.79 139.59 110.84 134.46 119.43 129.03ZM145.68 187.93C137.09 195.14 124.7 195.33 114.39 192.49C114.36 190.26 113.57 188.17 112.84 186.12C108.47 172.99 91.72 159.09 107.89 146.94C114.34 142.31 117.79 134.38 122.02 127.9C127.42 123.64 134.52 120.87 135.89 116.87C135.88 117.01 135.87 117.14 135.88 117.29C139.89 122.63 146.58 126.78 151.3 131.37C152.34 131.95 153.3 132.97 154.31 133.63C154.81 151.38 156.59 172.8 145.68 187.93Z" fill="black"/>
<path fill-rule="evenodd" clip-rule="evenodd" d="M120.01 214.79C131.02 228.23 152.23 289.38 146.32 311.17L131.43 308.74C131.43 308.74 121.11 282.32 110.49 268C99.8699 253.68 68.1799 214.63 68.1799 214.63C68.1799 214.63 69.3999 213.86 75.9399 201.51C75.9399 201.51 106.72 208.36 117.29 202.74C117.3 202.74 117 209.52 120.01 214.79Z" fill="black"/>
<path fill-rule="evenodd" clip-rule="evenodd" d="M146.32 311.18C147.01 332.04 147.19 415.68 149.85 434.68H124.45C124.45 434.68 132.82 382.79 135.89 367.35C138.62 335.26 129.46 309.49 130.76 289.49L146.32 311.18Z" fill="black"/>
<path d="M47.9299 304.15C47.9299 304.15 75.6199 362.35 98.2299 371.26C118.19 379.13 219.63 400.78 219.63 400.78L224.22 359.79C115.38 335.24 128.38 349.09 76.3199 245.29C71.1699 235.91 58.4999 227.85 45.9999 235.23C33.4799 242.61 34.8299 281.15 47.9299 304.15Z" fill="#232323"/>
<path fill-rule="evenodd" clip-rule="evenodd" d="M128.95 334.45C129 334.92 129.03 335.39 129.06 335.86C130.07 336.38 131.19 336.16 132.2 336.59C130.79 327.42 129.39 317.09 126.5 308.99C113.44 294.93 97.1401 284.34 84.6401 271.05C84.6401 271.06 84.6401 271.08 84.6401 271.09C84.6401 271.11 84.6401 271.15 84.6301 271.17C84.6401 271.18 84.6101 271.19 84.5301 271.21C84.6101 271.19 83.8501 271.32 83.7001 271.32C83.0601 271.41 84.5201 271.24 84.6401 271.09C84.6401 271.02 84.5501 270.95 84.6401 271.05C85.4901 266.25 87.6101 261.74 89.7701 257.33C83.0601 256.35 75.8401 253.07 74.3301 245.96C69.6101 236.97 65.9201 223.78 59.0601 215.96C58.7401 216.15 58.3101 216.64 57.5201 216.11C56.2701 222.21 66.6201 234.67 69.0801 241.24C73.1701 251.01 75.9301 256.68 87.3701 258.57C87.4701 258.33 87.5701 258.09 87.6801 257.84L88.1601 258.7C87.9001 258.66 87.6301 258.61 87.3701 258.57C80.3801 274.46 82.3301 271 93.9501 281.85C104.04 290.98 114.41 299.6 124 309C127.13 316.99 127.44 326.08 128.95 334.45Z" fill="black"/>
<path fill-rule="evenodd" clip-rule="evenodd" d="M161.84 273.36C160.1 263.37 153 255.37 148.09 246.77C147.94 247.02 147.83 247.16 147.61 247.41L147.7 246.12C147.83 246.34 147.96 246.55 148.09 246.77C155.11 236.44 138.59 223.57 133.06 214.57C130.58 213.78 128.09 213.09 125.58 212.42C132.52 220.01 139.55 226.85 145.42 235.34C148.33 238.6 149.08 243.18 146.06 246.68C151.49 256.33 160.56 265.25 160.31 276.48C158.63 298.4 155.09 320.35 149.15 341.45C149.19 341.46 149.23 341.47 149.27 341.47C149.22 341.47 149.18 341.47 149.15 341.46C150.47 341.6 151.78 341.74 153.07 342.04C157.59 320.13 161.2 295.62 161.84 273.36Z" fill="black"/>
<path fill-rule="evenodd" clip-rule="evenodd" d="M230.98 276.95C226.12 272.01 219.99 268.14 215.56 262.82C198.87 250.08 183.67 235.38 165.95 225.08C150.63 218.7 134.33 215.56 119.42 207.9C119.42 207.93 119.43 207.95 119.43 207.98L119.35 207.87C119.37 207.88 119.39 207.89 119.42 207.9C118.76 204.08 119.55 199.5 120.25 195.49C119.34 195.56 118.41 195.3 117.57 194.97H117.58C117.14 194.91 116.68 194.88 116.24 194.8C115.49 200.13 115.47 205.01 116.66 209.96C135.91 219.26 159.96 219.94 176.76 233.9C192.08 246.53 207.32 259.8 222.03 272.94C224 274.77 226.96 277.15 228.45 277.44C228.77 277.43 230.98 276.95 230.98 276.95Z" fill="black"/>
<path fill-rule="evenodd" clip-rule="evenodd" d="M176.35 292.47C176.35 292.47 176.71 292.66 177.37 293.01C175.55 284.57 172.63 275.57 171.17 267.25C168.08 259.94 169.37 267.44 170.91 272.32C173.45 280.75 172.86 284.54 176.35 292.47Z" fill="black"/>
<path fill-rule="evenodd" clip-rule="evenodd" d="M365.05 436.81C438.94 435.51 506.01 439.14 583.06 434.67C580.4 433.71 277.47 431.57 365.05 436.81Z" fill="black"/>
<path fill-rule="evenodd" clip-rule="evenodd" d="M70.72 436.81C100.62 435.1 151.23 438.58 181.29 434.94C180.07 434.91 179.48 434.83 179.73 434.67C125.1 434.48 68.9 433.77 13.1 434.4C12.92 434.56 12.64 434.72 9.97998 434.67C9.97998 435.07 9.97998 435.47 9.97998 435.87C33.01 437.51 49.96 436.3 70.72 436.81Z" fill="black"/>
<path fill-rule="evenodd" clip-rule="evenodd" d="M136.14 439.22C124.15 439.31 113.57 439.36 101.87 439.62C101.87 440.07 101.87 440.51 101.87 440.96C160.88 442.07 226.51 441.08 287.19 441.09C312.36 441.14 335.98 440.33 355.71 440.69C356.9 440.23 361.75 439.72 360.37 439.22C287.98 437.83 212.98 438.67 136.14 439.22Z" fill="black"/>
<path fill-rule="evenodd" clip-rule="evenodd" d="M80.0699 440.69C78.8799 440.18 81.9699 440.05 81.6199 439.62C59.8099 439.07 57.1299 439.13 34.9099 439.49C32.0199 439.78 33.8699 440.47 33.3599 440.96C51.0699 441.46 65.2999 441.25 80.0699 440.69Z" fill="black"/>
<path fill-rule="evenodd" clip-rule="evenodd" d="M533.24 439.49C526.04 442.48 570.42 440.79 572.17 441.09C572.58 440.68 575.54 440.49 576.83 440.15C568.9 438.86 551.23 439.28 533.24 439.49Z" fill="black"/>
<path fill-rule="evenodd" clip-rule="evenodd" d="M484.95 441.63C484.77 441.06 488.4 440.99 489.63 440.29C469.1 438.89 413.12 439.29 389.97 439.89C383.52 441.62 403.92 441.26 424.22 441.36C446.27 441.47 467.25 441.57 484.95 441.63Z" fill="black"/>
<path fill-rule="evenodd" clip-rule="evenodd" d="M340.14 445.24C338.37 445.54 334.93 445.69 333.91 446.04C340.61 446.62 373.2 449.61 388.42 445.5C373.46 444.84 354.04 445.52 340.14 445.24Z" fill="black"/>
<path fill-rule="evenodd" clip-rule="evenodd" d="M249.82 445.37C197.59 445.3 144.79 445.27 94.0899 445.64C89.8299 445.66 21.0699 444.41 38.0199 446.84C51.1999 447.52 76.4599 448.14 89.4099 447.38C154.27 449.04 219.07 447.32 277.85 448.32C283.43 448.21 279.33 447.79 282.51 447.38C286.45 446.88 294.55 447.03 291.86 446.18C289.4 445.4 266.42 445.45 249.82 445.37Z" fill="black"/>
<path fill-rule="evenodd" clip-rule="evenodd" d="M548.8 446.31C514.23 446.03 461.28 445.81 421.11 446.18C420.27 446.69 417.36 447.02 418 447.65C420.62 447.94 428.33 448.27 433.58 447.92C488.41 450.07 562.21 449.46 598.65 448.05C589.91 446.9 567.18 446.55 548.8 446.31Z" fill="black"/>
<path fill-rule="evenodd" clip-rule="evenodd" d="M218.84 402.63L219.19 402.74C219.1 402.72 219 402.69 218.91 402.66C219.02 402.71 219.13 402.76 219.25 402.81L219.78 398.45C178.81 389.75 135.84 382.7 96.2201 370.53C80.0001 364.07 74.4201 351.86 65.4101 338.89C65.0701 339.04 64.6101 339.52 63.8601 338.89C62.5001 347.4 73.3501 356.06 78.3501 362.05C91.2901 374.43 110.77 376.04 127.09 380.37C157.88 387.92 188.56 394.21 218.91 402.66C218.89 402.65 218.87 402.64 218.84 402.63Z" fill="black"/>
<path fill-rule="evenodd" clip-rule="evenodd" d="M223.77 357.1C223.62 357.08 223.48 357.07 223.33 357.05C220.93 371.88 218.43 386.75 214.9 401.16C214.91 401.14 214.92 401.11 214.93 401.09L214.84 401.45C215.34 400.61 214.88 401.26 214.9 401.17C214.85 401.29 214.82 401.4 214.77 401.52L219.2 402.75C221.17 389.48 223.82 371.12 225.49 357.43C224.91 357.3 224.34 357.18 223.77 357.1Z" fill="black"/>
<path fill-rule="evenodd" clip-rule="evenodd" d="M224.38 357.31C190.53 349.81 150.98 342.5 117.83 331.2C107.12 327.14 92.1299 295.76 85.1699 284.74C73.6399 265.41 61.7199 223.68 32.1999 237.66C32.3699 238 32.8899 238.45 31.9199 239.29C55.5399 236.45 63.2199 247.65 73.2299 267.24C86.7099 288.45 96.9399 314.53 114.91 331.63C150.19 344.71 187.74 351.55 223.98 361.27L224.38 357.31Z" fill="black"/>
<path fill-rule="evenodd" clip-rule="evenodd" d="M282.35 348.43C276.73 349.38 271.62 349.73 265.94 350.16C259.18 351.9 250.15 349.27 244.74 354.47C239.52 371.11 253.07 386.42 254.42 360.2C254.71 359.86 254.38 360.11 254.35 360.08C253.63 358.58 251.58 359.22 250.58 360.39C249.53 362.9 250.43 365.24 249.76 368.04C249.77 367.97 249.78 367.92 249.8 367.84L249.76 368.06C249.76 368.05 249.76 368.04 249.76 368.04C249.54 369.16 249.52 370.43 249.18 371.41L249.06 371.45C245.38 369.18 246.01 363.26 245.32 359.86C244.92 354.99 248.73 352.32 253.27 352.98C263.51 351.21 273.98 353.25 284.24 352.3L282.35 348.43Z" fill="black"/>
<path fill-rule="evenodd" clip-rule="evenodd" d="M275.92 387.25C273.8 385.75 272.26 383.11 269.85 382.15C269.07 382.08 268.37 383.39 268.67 384.41C270.28 385.95 272.42 386.74 274.4 388.38C274.39 388.37 274.37 388.35 274.36 388.34L274.48 388.43C274.45 388.41 274.43 388.4 274.4 388.38C277.59 390.95 274.76 394.48 271.76 394.92C269.74 396.96 267.39 400 264.02 399.64C263.64 399.55 263.35 399.87 263.28 400.23C262.59 402.45 259.79 404.56 257.78 402.54C257.44 403.37 256.8 404.12 255.95 404.46C258.79 406.52 262.56 405.15 263.99 402.09C263.92 401.52 264.13 401.23 264.3 400.78L264.33 400.76C267.62 400.6 270.19 398.43 272 396.03C271.95 396.03 271.91 396.04 271.86 396.03L272.2 395.77C272.13 395.88 272.07 395.95 272 396.03C276.01 395.38 279.39 390.62 275.92 387.25Z" fill="black"/>
<path fill-rule="evenodd" clip-rule="evenodd" d="M250.73 401.67C250.73 401.67 251 402.05 250.38 402.37C249.76 402.69 251.45 403.55 251.43 403.58C251.41 403.6 253.36 403.58 253.36 403.58L253.13 402.25L250.73 401.67Z" fill="black"/>
<path fill-rule="evenodd" clip-rule="evenodd" d="M263.45 4.94C263.45 4.94 276.24 4.27 283.09 5.24C289.94 6.21 283.83 1.11 283.83 1.11C283.83 1.11 269.06 -1.5 260.74 1.28C252.41 4.05 263.45 4.94 263.45 4.94Z" fill="black"/>
<path d="M468.27 352.56L475.71 350.05L526.5 388.28L526.46 473.09L520.13 478.15L466.61 443.7C459.86 443.47 470.07 350.92 468.27 352.56Z" fill="#232323"/>
<path d="M469.73 353.26L475.25 351.51L477.71 440.53L465.83 440.56L469.73 353.26Z" fill="white"/>
<path d="M523.46 309.9C525.63 313.69 536.68 331.04 536.68 331.04C530.61 351.34 515.45 394.73 508.07 414.9L540.35 432.55C540.35 432.55 581.99 352.55 580.87 329.47C579.75 306.39 555.47 275.81 546.07 245.35C534.72 210.26 524.88 204.28 499.99 198.04C491.68 244.81 500.8 272.12 523.46 309.9Z" fill="#CED5E0"/>
<path d="M580.87 329.48C580.49 321.58 577.39 312.79 573.1 303.43C563.54 310.27 573.39 329.8 567.06 340.84C565.47 344.82 567.29 352.47 575.32 354.43C578.89 344.06 581.14 335.09 580.87 329.48Z" fill="black"/>
<path fill-rule="evenodd" clip-rule="evenodd" d="M560.33 330.09C559.69 329.93 559.08 329.63 558.76 329.73C556.81 328.15 552.97 329.12 550.88 327.69C549.16 327.39 549.06 326.17 547.05 327.33C544.58 327.3 541.95 327.65 539.58 328.05C538.17 327.69 536.63 328.5 535.67 329.54C536.22 330.22 536.48 331.21 536.15 332.12C537.26 331.31 538.64 332.05 539.76 331.74C540.19 330.46 541.1 330.35 542.37 330.37C542.98 330.21 543.58 329.86 544.17 330.29C545.06 330.49 545.81 329.76 546.49 329.41C548.23 328.88 550.11 328.94 551.75 329.78C552.48 329.43 553.13 330.04 553.82 330.12C554.32 330.02 554.74 330.13 555.21 330.32C556.96 330.35 559.12 330.72 560.65 331.76C562.16 331.34 561.92 330.26 560.33 330.09Z" fill="black"/>
<path d="M508.73 420.13L492.26 426.39C492.26 426.39 486.31 427.79 485.47 429.51C482.34 437.1 480.06 446.22 478.59 453.23C482.96 456.07 488.37 444.12 489.15 443.04C489.89 443.41 492.51 451.23 492.87 452.06C493.05 454.05 484.92 456.11 484.64 456.43C485.41 462.43 488.77 461.15 492.87 461.78C493.64 462.84 497.51 466.17 499.57 465.5C512.89 481.65 527 440.86 529.45 432.55L508.73 420.13Z" fill="white"/>
<path fill-rule="evenodd" clip-rule="evenodd" d="M530.7 431.15C530.46 431.07 530.05 431.02 529.87 430.62C527.14 430.62 525.34 443.46 523.33 446.5C520.3 454.19 514.85 468.96 505.08 468.41C503.08 468.17 500.87 467.09 500.6 464.96C500.3 463.99 498.9 464.83 498.18 464.47C496.92 464.22 496.01 463.31 494.9 462.69C495.52 462.7 496.05 462.59 496.38 462.04C496.81 461.44 495.73 459.08 494.88 458.55C494.25 458.14 493.87 458.7 493.45 458.93C491.14 459.75 486.2 461.43 485.88 457.5C485.87 457.48 485.85 457.48 485.83 457.47L485.88 457.11C488.06 456.21 490.05 455.95 491.84 454.36C492.58 453.86 493.76 453.46 493.69 452.25C492.96 449.25 492.57 445.98 491.03 443.27C491.09 443.11 491.14 442.95 491.17 442.79C491.48 442.85 491.17 442.73 491.16 442.69C491.04 441.88 490.99 441.03 489.87 440.61C483.7 439.64 486.69 453.06 480.14 452.64L480.07 452.54C485.84 421.8 483.25 432.32 508.63 422.23C509.65 422.39 509.57 421.83 509.85 421.02C509.71 420.68 509.4 420.15 509.54 419.6C508.86 418.86 508.02 418.43 506.97 418.43C502.34 421.55 497.38 423.27 492.18 425.23C488.11 427.07 483.2 428.47 482.7 433.85C481.11 440.37 479.03 446.52 477.77 453.03C477.61 453.44 477.61 454.19 478.03 454.43C483.28 457.78 487.19 451.21 488.86 447.1C489.86 448.42 490.67 449.96 491.39 451.6C491.93 451.77 491.95 452.04 491.98 452.45C491.95 452.43 491.98 452.35 491.97 452.35C489.71 454.61 486.2 455.23 483.43 456.33C483.83 457.67 484.37 459.29 484.87 460.63C486.57 462.69 488.84 462.89 491.3 462.71C493.19 464.7 496 466.6 499.07 466.46C499.06 466.44 499.05 466.41 499.04 466.39L499.14 466.46C499.12 466.46 499.09 466.46 499.07 466.46C500.76 470.2 505.33 470.39 508.75 469.45C515.69 466.45 519.01 458.5 522.2 452.14C525.16 445.71 528.62 439.54 530.62 432.7C531.1 432.23 531.02 431.76 530.7 431.15Z" fill="black"/>
<path d="M505.94 421.39L535.51 436.17L538.62 431.61L508.07 414.91L505.94 421.39Z" fill="black"/>
<path fill-rule="evenodd" clip-rule="evenodd" d="M537.43 330.43C518.47 298.76 478.75 244.23 510.95 211.86C510.74 211.56 510.1 211.23 510.81 210.25C500.8 211.09 496.53 226.73 495.84 235.45C493.39 264.17 520.88 307.03 536.01 331.1C536.04 331.02 536.06 330.95 536.09 330.87L536.15 331.31C536.1 331.24 536.06 331.17 536.01 331.1C525.67 360.04 515.74 387.76 505.25 416.25L509.1 418.41C518.02 390.38 528.6 358.81 537.74 330.89L537.43 330.43Z" fill="black"/>
</svg>
