<svg width="1440" height="435" viewBox="0 0 1440 435" fill="none" xmlns="http://www.w3.org/2000/svg">
<mask id="mask0" mask-type="alpha" maskUnits="userSpaceOnUse" x="0" y="0" width="1440" height="435">
<rect width="1440" height="435" fill="#2A2B2D"/>
</mask>
<g mask="url(#mask0)">
<path opacity="0.15" d="M-142.34 174.746C-86.2879 230.798 -2.3961 230.122 52.3737 175.352C107.144 120.582 109.29 38.1602 60.3322 -10.7976C33.6802 -37.4495 19.4173 -48.752 -0.268113 -68.4374L48.645 -117.35L16.0859 -179L-154.853 -8.06153C-154.853 -8.06153 -240.064 77.0221 -142.34 174.746ZM-97.2872 129.309C-126.112 100.484 -126.67 57.9644 -95.8418 27.1363C-79.3658 10.6603 -64.3065 -4.14322 -43.9046 -24.5451C-30.671 -12.3412 -7.09048 12.269 6.33137 25.6909C35.5399 54.8993 36.0976 97.4194 5.26945 128.248C-25.5587 159.076 -68.0787 158.518 -97.2872 129.309Z" fill="white"/>
<path opacity="0.15" d="M1338.66 499.746C1394.71 555.798 1478.6 555.122 1533.37 500.352C1588.14 445.582 1590.29 363.16 1541.33 314.202C1514.68 287.55 1500.42 276.248 1480.73 256.563L1529.64 207.65L1497.09 146L1326.15 316.938C1326.15 316.938 1240.94 402.022 1338.66 499.746ZM1383.71 454.309C1354.89 425.484 1354.33 382.964 1385.16 352.136C1401.63 335.66 1416.69 320.857 1437.1 300.455C1450.33 312.659 1473.91 337.269 1487.33 350.691C1516.54 379.899 1517.1 422.419 1486.27 453.248C1455.44 484.076 1412.92 483.518 1383.71 454.309Z" fill="white"/>
</g>
</svg>
