<svg width="483" height="756" viewBox="0 0 483 756" fill="none" xmlns="http://www.w3.org/2000/svg">
<mask id="mask0" mask-type="alpha" maskUnits="userSpaceOnUse" x="0" y="0" fill="#34a7ce" width="483" height="756">
<rect width="483" height="756" fill="#34a7ce"/>
</mask>
<g mask="url(#mask0)">
<rect width="483" height="756" fill="#34a7ce"/>
<g opacity="0.5">
<path d="M883.299 572.762C883.661 634.045 861.109 685.083 823.559 719.666C790.115 750.467 744.583 768.31 692.627 768.75C583.642 769.671 501.856 691.8 501.248 575.92C500.907 514.154 501.129 458.046 500.692 381.543C548.787 379.098 639.643 380.359 690.55 379.958C742.344 379.512 787.673 396.603 821.416 426.68L953.011 305.485C892.369 245.358 811.37 209.385 722.767 210.065C622.078 210.912 573.832 216.893 499.404 217.49L498.537 54.9027C497.941 -55.5828 425.185 -152.58 319.354 -184.061L320.007 -63.5899L320.425 15.2475L320.843 94.0848L323.256 546.655L323.539 604.152L323.578 618.323L323.644 622.432C323.644 622.432 323.602 623.397 323.701 624.85C324.059 635.33 326.933 681.175 347.986 734.984C383.936 826.499 473.125 940.33 694.241 938.371C794.126 937.493 881.744 901.429 946.2 842.066C1018.45 775.524 1061.76 679.738 1061.16 571.266C1060.78 493.316 1038.45 422.306 1000.83 364.298L865.961 488.505C876.899 513.333 883.1 541.596 883.299 572.762Z" fill="white"/>
<path d="M323.257 546.657L320.836 94.247L320.657 70.1669C281.271 -25.7511 186.503 -88.1136 81.6991 -85.1758L323.392 584.985L323.257 546.657Z" fill="white" fill-opacity="0.6"/>
<path d="M178.745 184.03C115.752 139.349 34.0715 125.006 -42.7422 149.421L327.763 661.724C324.68 643.407 323.887 629.93 323.701 624.85C323.602 623.397 323.643 622.433 323.643 622.433L323.577 618.324L323.538 604.153L323.391 584.985L178.745 184.03Z" fill="white" fill-opacity="0.3"/>
</g>
</g>
</svg>
