<svg width="1440" height="534" viewBox="0 0 1440 534" fill="none" xmlns="http://www.w3.org/2000/svg">
<g opacity="0.5">
<mask id="mask0" mask-type="alpha" maskUnits="userSpaceOnUse" x="0" y="0" width="1440" height="534">
<rect width="1440" height="534" fill="#FAFAFC"/>
</mask>
<g mask="url(#mask0)">
<path d="M1212.29 903.78C1347.34 1038.83 1549.46 1037.2 1681.42 905.24C1813.37 773.283 1818.54 574.704 1700.59 456.75C1636.38 392.538 1602.01 365.307 1554.59 317.879L1672.43 200.032L1593.99 51.5L1182.15 463.342C1182.15 463.342 976.846 668.334 1212.29 903.78ZM1320.84 794.31C1251.39 724.862 1250.05 622.419 1324.32 548.144C1364.02 508.449 1400.3 472.783 1449.45 423.628C1481.34 453.031 1538.15 512.325 1570.49 544.662C1640.86 615.034 1642.2 717.478 1567.93 791.752C1493.65 866.026 1391.21 864.682 1320.84 794.31Z" fill="#EAEEF4"/>
<path d="M-68.7077 135.28C66.3388 270.327 268.46 268.697 400.416 136.74C532.374 4.78321 537.545 -193.796 419.591 -311.75C355.378 -375.962 321.014 -403.193 273.586 -450.621L391.433 -568.468L312.988 -717L-98.854 -305.158C-98.854 -305.158 -304.154 -100.166 -68.7077 135.28ZM39.8381 25.8104C-29.61 -43.6378 -30.9536 -146.081 43.3207 -220.356C83.0164 -260.051 119.299 -295.717 168.453 -344.872C200.337 -315.469 257.149 -256.175 289.487 -223.838C359.859 -153.466 361.202 -51.0225 286.928 23.2518C212.654 97.5261 110.21 96.1824 39.8381 25.8104Z" fill="#EAEEF4"/>
</g>
</g>
</svg>
