<svg width="1440" height="946" viewBox="0 0 1440 946" fill="none" xmlns="http://www.w3.org/2000/svg">
<g opacity="0.5">
<mask id="mask0" mask-type="alpha" maskUnits="userSpaceOnUse" x="0" y="0" width="1440" height="946">
<rect width="1440" height="946" fill="#FAFAFC"/>
</mask>
<g mask="url(#mask0)">
<path d="M1060.29 1251.28C1195.34 1386.33 1397.46 1384.7 1529.42 1252.74C1661.37 1120.78 1666.54 922.204 1548.59 804.25C1484.38 740.038 1450.01 712.807 1402.59 665.379L1520.43 547.532L1441.99 399L1030.15 810.842C1030.15 810.842 824.846 1015.83 1060.29 1251.28ZM1168.84 1141.81C1099.39 1072.36 1098.05 969.919 1172.32 895.644C1212.02 855.949 1248.3 820.283 1297.45 771.128C1329.34 800.531 1386.15 859.825 1418.49 892.162C1488.86 962.534 1490.2 1064.98 1415.93 1139.25C1341.65 1213.53 1239.21 1212.18 1168.84 1141.81Z" fill="white" fill-opacity="0.15"/>
<path opacity="0.15" d="M-235.708 235.28C-100.661 370.327 101.46 368.697 233.416 236.74C365.374 104.783 370.545 -93.7958 252.591 -211.75C188.378 -275.962 154.014 -303.193 106.586 -350.621L224.433 -468.468L145.988 -617L-265.854 -205.158C-265.854 -205.158 -471.154 -0.165727 -235.708 235.28ZM-127.162 125.81C-196.61 56.3622 -197.954 -46.0813 -123.679 -120.356C-83.9836 -160.051 -47.7014 -195.717 1.45293 -244.872C33.3368 -215.469 90.1493 -156.175 122.487 -123.838C192.859 -53.466 194.202 48.9775 119.928 123.252C45.6538 197.526 -56.7898 196.182 -127.162 125.81Z" fill="white"/>
</g>
</g>
</svg>
