<svg width="1439" height="763" viewBox="0 0 1439 763" fill="none" xmlns="http://www.w3.org/2000/svg">
<g opacity="0.5">
<mask id="mask0" mask-type="alpha" maskUnits="userSpaceOnUse" x="-1" y="0" width="1440" height="763">
<rect x="-1" width="1440" height="763" fill="#FAFAFC"/>
</mask>
<g mask="url(#mask0)">
<path d="M1211.29 974.28C1346.34 1109.33 1548.46 1107.7 1680.42 975.74C1812.37 843.783 1817.54 645.204 1699.59 527.25C1635.38 463.038 1601.01 435.807 1553.59 388.379L1671.43 270.532L1592.99 122L1181.15 533.842C1181.15 533.842 975.846 738.834 1211.29 974.28ZM1319.84 864.81C1250.39 795.362 1249.05 692.919 1323.32 618.644C1363.02 578.949 1399.3 543.283 1448.45 494.128C1480.34 523.531 1537.15 582.825 1569.49 615.162C1639.86 685.534 1641.2 787.978 1566.93 862.252C1492.65 936.526 1390.21 935.182 1319.84 864.81Z" fill="#EAEEF4"/>
<path d="M-69.7077 135.28C65.3388 270.327 267.46 268.697 399.416 136.74C531.374 4.78321 536.545 -193.796 418.591 -311.75C354.378 -375.962 320.014 -403.193 272.586 -450.621L390.433 -568.468L311.988 -717L-99.854 -305.158C-99.854 -305.158 -305.154 -100.166 -69.7077 135.28ZM38.8381 25.8104C-30.61 -43.6378 -31.9536 -146.081 42.3207 -220.356C82.0164 -260.051 118.299 -295.717 167.453 -344.872C199.337 -315.469 256.149 -256.175 288.487 -223.838C358.859 -153.466 360.202 -51.0225 285.928 23.2518C211.654 97.5261 109.21 96.1824 38.8381 25.8104Z" fill="#EAEEF4"/>
</g>
</g>
</svg>
