<svg width="1220" height="941" viewBox="0 0 1220 941" fill="none" xmlns="http://www.w3.org/2000/svg">
<g opacity="0.8">
<path d="M1033.14 427.19C1044.42 481.576 1033.51 530.957 1006.34 568.4C982.13 601.749 944.866 625.746 898.782 635.43C802.113 655.74 715.518 601.18 694.252 498.329C682.901 443.51 673.063 393.619 658.992 325.723C701.288 314.949 782.239 299.819 827.398 290.358C873.338 280.697 916.67 287.775 952.03 308.465L1047.28 177.245C982.641 134.668 904.239 117.193 825.637 133.645C736.326 152.406 694.528 166.349 628.506 180.192L598.655 35.8874C578.365 -62.1728 496.372 -135.342 396.711 -144.385L418.838 -37.4625L433.309 32.5102L447.781 102.483L530.871 504.162L541.406 555.197L543.975 567.782L544.769 571.421C544.769 571.421 544.904 572.285 545.252 573.558C547.445 582.807 558.197 623.025 586.528 667.07C634.837 741.952 734.441 827.138 930.554 785.85C1019.14 767.205 1090.54 719.491 1137.2 655.218C1189.49 583.173 1210.83 490.321 1190.9 394.05C1176.62 324.858 1144.08 265.76 1100.28 220.949L1002.67 355.428C1016.82 375.532 1027.39 399.535 1033.14 427.19Z" fill="white" fill-opacity="0.12"/>
<path d="M530.869 504.163L447.801 102.628L443.335 81.2645C391.185 3.08529 295.829 -35.3741 203.236 -14.0189L537.844 538.194L530.869 504.163Z" fill="white" fill-opacity="0.08"/>
<path d="M337.614 207.815C273.653 179.382 198.514 181.248 134.631 216.679L555.456 605.595C549.44 589.872 546.325 578.039 545.252 573.559C544.904 572.286 544.768 571.421 544.768 571.421L543.974 567.783L541.405 555.198L537.845 538.194L337.614 207.815Z" fill="white" fill-opacity="0.05"/>
</g>
</svg>
