<svg width="82" height="21" viewBox="0 0 82 21" fill="none" xmlns="http://www.w3.org/2000/svg">
<path d="M7.90028 20.0315C12.2978 20.0315 15.5622 16.759 15.5622 12.5201C15.5622 8.28122 12.4132 5.00867 8.5722 5.00867C6.48123 5.00867 5.47836 5.12323 3.93395 5.12323V1.33763L0.238403 0.211914V13.4416C0.238403 13.4416 0.233392 20.0315 7.90028 20.0315ZM7.88523 16.5298C5.62378 16.5298 3.93395 14.906 3.93395 12.5201C3.93395 11.2449 3.94398 10.0893 3.94398 8.51034C4.94183 8.4705 6.83223 8.51034 7.88523 8.51034C10.1768 8.51034 11.8666 10.1342 11.8666 12.5201C11.8666 14.906 10.1768 16.5298 7.88523 16.5298Z" fill="#2A2B2D"/>
<path d="M26.0421 16.6992C27.4762 16.6992 28.6194 16.1014 29.2512 15.2746L32.2297 16.9831C30.8859 18.9157 28.7348 20.0265 25.9869 20.0265C21.1732 20.0265 18.1395 16.754 18.1395 12.5151C18.1395 8.27621 21.2033 5.00366 25.7011 5.00366C29.9382 5.00366 32.9468 8.331 32.9468 12.5151C32.9468 13.058 32.8916 13.5412 32.8014 14.0243H22.0056C22.522 15.9022 24.0965 16.6992 26.0421 16.6992ZM29.2512 11.1802C28.7949 9.13295 27.2455 8.3061 25.7011 8.3061C23.7255 8.3061 22.3766 9.3571 21.9504 11.1802H29.2512Z" fill="#2A2B2D"/>
<path d="M42.8952 8.93373V5.40715H39.6609V0.211914L35.9654 1.32269V5.40715V8.93373V14.8512C35.9654 18.6916 37.7154 20.2009 42.8952 19.633V16.3057C40.7741 16.4202 39.6609 16.3904 39.6609 14.8562V8.93373H42.8952Z" fill="#2A2B2D"/>
<path d="M52.8486 8.93373V5.40715H49.6144V0.211914L45.9188 1.32269V5.40715V8.93373V14.8512C45.9188 18.6916 47.6638 20.2009 52.8486 19.633V16.3057C50.7276 16.4202 49.6144 16.3904 49.6144 14.8562V8.93373H52.8486Z" fill="#2A2B2D"/>
<path d="M64.5019 5.40216V8.87395C62.5814 8.64482 60.1495 10.443 60.1495 13.4316V19.628H56.4539V5.40216H60.1495V7.42447C61.0571 6.03475 62.6967 5.40216 64.5019 5.40216Z" fill="#2A2B2D"/>
<path d="M74.6508 16.6992C76.0849 16.6992 77.2282 16.1014 77.86 15.2746L80.8385 16.9831C79.4896 18.9157 77.3435 20.0265 74.5957 20.0265C69.7819 20.0265 66.7483 16.754 66.7483 12.5151C66.7483 8.27621 69.812 5.00366 74.3099 5.00366C78.547 5.00366 81.5555 8.331 81.5555 12.5151C81.5555 13.058 81.5004 13.5412 81.4101 14.0243H70.6093C71.1258 15.9022 72.7003 16.6992 74.6508 16.6992ZM77.86 11.1802C77.4037 9.13295 75.8543 8.3061 74.3099 8.3061C72.3342 8.3061 70.9854 9.3571 70.5592 11.1802H77.86Z" fill="#2A2B2D"/>
</svg>
