<svg width="334" height="490" viewBox="0 0 334 490" fill="none" xmlns="http://www.w3.org/2000/svg">
<mask id="mask0" mask-type="alpha" maskUnits="userSpaceOnUse" x="0" y="0" width="334" height="490">
<path d="M0 0H328C331.314 0 334 2.68629 334 6V484C334 487.314 331.314 490 328 490H0V0Z" fill="#004750"/>
</mask>
<g mask="url(#mask0)">
<path opacity="0.2" d="M175.66 552.746C231.712 608.798 315.604 608.122 370.374 553.352C425.144 498.582 427.29 416.16 378.332 367.202C351.68 340.55 337.417 329.248 317.732 309.563L366.645 260.65L334.086 199L163.147 369.938C163.147 369.938 77.9361 455.022 175.66 552.746ZM220.713 507.309C191.888 478.484 191.33 435.964 222.158 405.136C238.634 388.66 253.693 373.857 274.095 353.455C287.329 365.659 310.91 390.269 324.331 403.691C353.54 432.899 354.098 475.419 323.269 506.248C292.441 537.076 249.921 536.518 220.713 507.309Z" fill="white"/>
<path opacity="0.2" d="M-137.34 167.746C-81.2879 223.798 2.6039 223.122 57.3737 168.352C112.144 113.582 114.29 31.1602 65.3322 -17.7976C38.6802 -44.4495 24.4173 -55.752 4.73189 -75.4374L53.645 -124.35L21.0859 -186L-149.853 -15.0615C-149.853 -15.0615 -235.064 70.0221 -137.34 167.746ZM-92.2872 122.309C-121.112 93.4845 -121.67 50.9644 -90.8418 20.1363C-74.3658 3.66029 -59.3065 -11.1432 -38.9046 -31.5451C-25.671 -19.3412 -2.09048 5.26901 11.3314 18.6909C40.5399 47.8993 41.0976 90.4194 10.2694 121.248C-20.5587 152.076 -63.0787 151.518 -92.2872 122.309Z" fill="white"/>
</g>
</svg>
